<svg xmlns="http://www.w3.org/2000/svg" width="105.1" height="105.1" viewBox="0 0 105.1 105.1"><g fill="#0F72AF"><path d="M101.8 57.3l-10.7-2 2-10.7c.4-1.9-.9-3.7-2.8-4.1-1.9-.4-3.7.9-4.1 2.8l-2 10.7-10.7-2c-1.9-.4-3.7.9-4.1 2.8-.4 1.9.9 3.7 2.8 4.1l10.7 2-2 10.7c-.4 1.9.9 3.7 2.8 4.1.2 0 .4.1.7.1 1.6 0 3.1-1.2 3.4-2.8l2-10.7 10.7 2c.2 0 .4.1.7.1 1.6 0 3.1-1.2 3.4-2.8.3-2.1-.9-3.9-2.8-4.3zM66.3 81.4c-.3-1.9-2-3.2-3.9-3l-10.8 1.5-1.5-10.8c-.3-1.9-2-3.2-3.9-3-1.9.3-3.3 2-3 4l1.5 10.8-10.8 1.5c-1.9.3-3.2 2-3 4 .2 1.8 1.7 3 3.5 3h.5l10.8-1.5 1.5 10.8c.2 1.8 1.7 3 3.5 3h.5c1.9-.3 3.3-2 3-4l-1.5-10.8 10.8-1.5c1.7-.3 3.1-2.1 2.8-4zM32.7 20.9l-10-4.2 4.2-10c.7-1.8-.1-3.8-1.9-4.6-1.8-.7-3.8.1-4.6 1.9l-4.2 10-10-4.2c-1.9-.7-3.9.2-4.7 2s.1 3.8 1.9 4.6l10 4.2-4.2 10c-.7 1.8.1 3.8 1.9 4.6.4.2.9.3 1.3.3 1.4 0 2.7-.8 3.2-2.2l4.2-10 10 4.2c.4.2.9.3 1.3.3 1.4 0 2.7-.8 3.2-2.2 1-1.9.1-3.9-1.6-4.7zM18 44.4c-9.4 0-17 7.6-17 17s7.6 17 17 17 17-7.6 17-17-7.6-17-17-17zM17.9 70c-4.8 0-8.7-3.9-8.7-8.7s3.9-8.7 8.7-8.7 8.7 3.9 8.7 8.7-3.9 8.7-8.7 8.7z"/><path d="M85.5 21.1c-.1-.1-.3-.2-.4-.3L70.6 8.9c-1.5-1.2-3.7-1-4.9.5-1.2 1.5-1 3.7.5 4.9l6.2 5.1C39.8 21.9 22.7 48.5 22 49.7l6.8 4.2c.2-.3 16.4-25.6 46.6-26.7L67 36.7c-1.3 1.4-1.2 3.7.3 4.9.7.6 1.5.9 2.3.9 1 0 1.9-.4 2.6-1.2L85.8 26c1.3-1.4 1.1-3.6-.3-4.9z"/></g></svg>